 <svg  version="1.0" xmlns="http://www.w3.org/2000/svg"  width="300.000000pt" height="300.000000pt" viewBox="0 0 300.000000 300.000000"  preserveAspectRatio="xMidYMid meet">  <g transform="translate(0.000000,300.000000) scale(0.100000,-0.100000)" fill="#187fec" stroke="none"> <path d="M650 2987 c0 -21 109 -219 136 -248 13 -14 24 -29 24 -35 0 -6 -75 -11 -187 -13 -104 -1 -190 -5 -192 -7 -2 -2 95 -4 217 -4 213 0 251 -5 226 -30 -5 -5 -175 -10 -377 -11 l-368 -2 -28 27 c-25 24 -28 34 -27 87 2 85 20 78 27 -11 3 -41 6 -70 7 -64 1 6 14 10 30 9 15 -1 19 0 10 2 -14 4 -18 16 -19 61 0 41 -3 51 -9 37 -8 -18 -9 -17 -9 6 -1 15 -9 35 -19 46 -9 10 -14 14 -9 7 4 -6 1 -17 -8 -24 -10 -8 -15 -30 -15 -67 0 -50 -1 -53 -19 -43 -48 25 -41 4 16 -48 52 -48 62 -63 66 -97 3 -37 4 -36 5 11 2 47 4 51 25 47 22 -4 22 -6 19 -146 -2 -105 0 -146 10 -159 11 -15 37 -18 174 -21 106 -3 168 0 181 7 14 9 19 24 20 68 1 32 6 65 12 75 8 14 10 -1 11 -60 0 -46 4 -76 9 -72 12 7 16 94 8 160 -2 19 5 20 121 23 l122 3 10 -26 c6 -15 10 -71 10 -126 l0 -99 -130 0 c-128 0 -130 0 -131 23 -1 18 -2 19 -6 3 -8 -32 13 -39 122 -41 58 -2 108 -5 112 -8 3 -4 13 -2 23 3 12 6 21 3 33 -11 9 -10 26 -19 37 -19 12 0 20 -7 20 -16 0 -12 -7 -14 -27 -10 -16 2 -55 8 -88 11 -33 4 -64 10 -70 13 -5 4 -23 7 -40 8 -61 4 -313 35 -390 49 -44 7 -106 16 -138 20 -43 6 -57 11 -58 24 0 12 -2 11 -9 -4 -7 -17 -9 -18 -14 -4 -11 25 -12 229 -2 229 14 0 -15 30 -61 61 -52 36 -59 17 -8 -24 l35 -28 0 -124 c0 -112 -2 -125 -17 -126 -22 -1 171 -31 607 -93 179 -26 335 -51 348 -56 l22 -10 0 -423 c0 -323 -3 -427 -12 -439 -13 -16 -114 -26 -328 -33 -41 -2 -127 -8 -190 -14 -63 -6 -154 -13 -201 -16 l-86 -7 -11 -50 c-7 -27 -12 -59 -11 -71 0 -21 1 -21 9 -2 4 11 13 39 19 63 8 27 18 42 29 43 60 5 104 8 157 14 33 3 77 7 98 9 30 3 37 1 37 -14 0 -18 -40 -30 -102 -30 -18 0 -33 -10 -48 -30 -18 -25 -19 -30 -6 -30 11 0 16 -9 17 -27 0 -16 2 -43 3 -60 3 -25 0 -33 -13 -33 -9 0 -26 -3 -38 -6 -22 -6 -23 -4 -23 59 0 36 4 68 10 72 5 3 6 13 3 22 -11 28 -22 -14 -22 -89 -1 -68 -8 -81 -31 -53 -7 8 -16 15 -21 15 -4 0 -20 5 -36 12 -15 6 -31 10 -36 10 -4 -1 -12 9 -19 23 -8 19 -7 37 6 83 20 71 20 72 1 72 -16 0 -27 -48 -29 -128 l-1 -55 73 -27 c40 -14 70 -29 66 -33 -4 -3 11 -3 31 0 29 5 36 3 30 -7 -5 -8 -2 -11 11 -7 11 3 71 11 134 18 84 10 107 15 85 20 -17 4 3 6 49 5 70 -2 80 -5 97 -27 22 -29 24 -49 4 -49 -9 0 -12 6 -9 15 8 21 -29 20 -206 -5 -174 -24 -157 -24 -163 0 -7 27 -37 26 -37 -2 0 -12 3 -18 7 -15 8 9 43 -22 43 -38 0 -7 -26 -17 -59 -24 -68 -13 -102 -5 -127 34 -9 14 -25 25 -35 25 -11 0 -19 7 -19 15 0 8 -5 15 -10 15 -6 0 -28 12 -50 26 l-40 27 0 105 c0 82 3 102 13 95 6 -6 31 -9 55 -7 24 2 41 0 38 -5 -12 -19 -14 -160 -3 -174 13 -16 136 -61 145 -52 8 7 4 9 -68 36 l-65 25 -3 47 c-2 25 1 69 6 96 l9 51 -51 -6 c-86 -10 -81 -46 -81 557 0 435 -2 525 -13 516 -11 -9 -12 -108 -8 -531 3 -287 9 -574 12 -639 4 -93 2 -117 -8 -117 -7 0 12 -17 43 -38 30 -20 83 -59 118 -86 57 -46 66 -50 111 -47 32 2 62 -4 89 -17 23 -11 51 -18 63 -15 21 4 21 3 5 -7 -10 -6 -24 -9 -31 -7 -8 3 -37 -1 -67 -10 -45 -13 -54 -14 -63 -1 -6 7 -29 27 -51 43 -22 16 -63 49 -92 73 -55 46 -82 56 -116 42 -21 -8 -21 -9 -2 -10 20 -1 20 -1 1 -15 -30 -22 -5 -41 62 -48 71 -8 94 -16 89 -31 -6 -15 -50 -11 -89 8 -41 21 -55 20 -35 -2 19 -21 22 -42 7 -42 -5 0 -10 8 -10 18 0 11 -9 27 -20 37 -17 16 -20 16 -20 2 0 -8 6 -18 13 -21 9 -5 9 -7 0 -12 -21 -9 -15 -21 14 -29 20 -5 31 -2 40 11 11 15 18 16 49 6 26 -8 41 -8 54 0 19 12 50 5 50 -12 0 -9 -11 -12 -65 -14 -15 -1 -20 -9 -21 -33 0 -17 -6 -39 -13 -47 -8 -9 -10 -16 -6 -16 4 0 2 -7 -5 -15 -7 -8 -29 -15 -49 -15 -20 0 -43 -5 -51 -10 -11 -7 -2 -10 32 -10 38 0 54 6 80 28 18 16 58 40 89 54 l55 25 32 -28 c36 -33 40 -30 -68 -49 -54 -9 -54 -9 15 -4 39 4 85 6 103 5 17 0 67 -1 110 -2 80 -2 135 14 162 46 17 20 11 25 -36 31 -42 5 -37 0 11 -11 28 -6 29 -8 12 -20 -13 -10 -54 -13 -144 -12 -119 0 -127 2 -155 26 l-30 25 78 16 c44 9 89 22 101 28 25 14 93 5 71 -9 -7 -5 -25 -9 -40 -9 -15 0 -29 -4 -32 -8 -3 -5 47 -8 110 -7 106 1 116 3 130 23 9 13 30 24 55 28 21 4 39 10 39 15 0 8 -16 6 -100 -10 -32 -7 -40 -3 -88 37 -29 25 -51 47 -49 49 4 3 238 33 265 33 7 0 11 -4 7 -10 -3 -5 -32 -12 -65 -16 -41 -4 -60 -11 -60 -20 0 -8 -10 -14 -22 -13 -17 1 -19 2 -5 6 30 8 18 20 -18 19 -19 0 -35 -5 -35 -10 0 -5 -7 -3 -15 4 -31 26 -13 -2 21 -34 32 -29 41 -33 67 -25 16 5 33 6 37 4 4 -3 22 0 39 6 23 8 41 27 63 66 28 50 70 85 84 70 7 -7 -27 -67 -38 -67 -4 0 -7 -3 -6 -7 3 -10 -27 -57 -73 -113 -48 -59 -96 -152 -70 -135 6 3 14 -2 20 -12 8 -15 10 -14 17 12 12 50 49 127 96 200 25 39 60 98 78 132 18 36 36 60 43 56 6 -4 7 -1 2 6 -11 19 81 101 150 135 33 15 78 45 100 65 22 21 55 49 73 64 l33 26 -118 3 -118 3 -1 255 -1 255 166 0 c106 0 164 -4 161 -10 -3 -6 -16 -9 -30 -8 -14 1 -19 0 -12 -3 34 -15 1 -24 -105 -27 -82 -2 -57 -3 78 -5 152 -2 203 -5 225 -17 16 -8 39 -15 52 -15 64 0 159 -78 180 -146 16 -56 15 -71 -11 -151 l-23 -70 44 -23 c56 -30 129 -111 143 -161 14 -46 9 -55 -21 -39 -16 8 -35 9 -72 0 -61 -13 -71 -7 -28 15 l32 17 -43 44 c-24 24 -44 44 -46 44 -11 0 1 -33 22 -58 13 -16 21 -32 18 -36 -4 -4 -15 3 -25 16 -15 20 -20 21 -35 10 -10 -7 -26 -15 -35 -18 -13 -5 -15 -10 -6 -29 8 -19 15 -22 37 -15 18 5 30 3 39 -6 9 -10 26 -12 53 -9 46 6 45 -6 -5 -36 -20 -12 -25 -19 -14 -19 9 0 20 5 23 10 14 23 23 8 13 -22 -5 -18 -10 -42 -9 -52 0 -20 107 -125 128 -126 19 0 64 -91 57 -113 -3 -11 -6 -38 -6 -61 l0 -41 -26 34 c-56 71 -63 74 -30 12 19 -35 44 -71 56 -79 l22 -14 0 76 c0 44 4 76 10 76 6 0 10 -40 10 -100 0 -55 -4 -100 -8 -100 -17 0 -82 78 -110 135 -27 51 -31 56 -32 32 0 -30 52 -119 91 -153 32 -28 66 -36 73 -17 4 8 6 50 7 92 0 73 -2 81 -61 203 -33 70 -65 130 -71 134 -22 13 -19 -6 7 -58 l27 -53 -54 51 c-30 28 -61 53 -69 56 -13 4 -12 10 3 37 11 18 17 41 14 51 -6 23 8 35 50 43 25 5 42 -1 90 -32 67 -44 80 -57 119 -126 25 -43 33 -50 59 -50 18 0 48 13 74 33 25 18 55 35 68 39 34 8 104 -3 114 -18 11 -19 7 -20 -27 -7 -40 15 -91 4 -143 -30 l-42 -27 43 -7 c24 -4 67 -8 96 -8 29 -1 50 -5 47 -10 -5 -9 66 -20 128 -19 20 0 37 -4 37 -8 0 -4 -30 -28 -66 -51 l-67 -44 -66 12 c-105 19 -106 19 -84 36 21 16 37 18 28 4 -4 -6 1 -7 11 -3 12 5 15 3 9 -6 -6 -10 -3 -11 14 -2 11 7 21 8 21 3 0 -4 16 -7 35 -7 29 1 33 -1 23 -12 -6 -8 6 -4 28 8 21 13 41 27 42 31 2 4 11 8 20 8 8 0 13 2 10 5 -5 6 -88 17 -135 19 -18 0 -33 3 -33 7 0 3 -10 5 -22 4 -13 -1 -22 -5 -20 -8 1 -4 2 -12 2 -18 0 -8 5 -7 15 1 9 7 18 11 20 8 13 -13 -24 -28 -46 -19 -13 5 -19 10 -14 10 6 1 11 9 12 18 1 15 -7 18 -43 19 -24 0 -44 -3 -44 -8 0 -4 3 -7 8 -7 25 4 62 -3 62 -11 0 -6 -11 -8 -25 -6 -14 3 -25 0 -25 -6 0 -5 7 -7 16 -4 10 4 13 2 8 -6 -5 -8 -2 -9 9 -5 10 3 17 2 17 -2 0 -20 -26 -17 -47 6 -26 27 -33 29 -33 8 0 -8 6 -15 13 -15 8 0 27 -17 44 -38 26 -33 41 -41 104 -56 80 -20 129 -22 344 -14 76 3 148 3 160 -2 41 -15 80 -22 70 -12 -22 22 -110 38 -160 30 -31 -5 -82 -4 -132 4 -79 11 -96 19 -73 33 6 4 8 15 5 26 -8 23 -7 23 38 4 20 -8 38 -23 40 -32 2 -10 3 -7 2 5 -2 20 1 23 19 19 11 -2 48 -10 82 -17 45 -10 77 -11 125 -3 l64 10 -81 2 c-89 1 -105 12 -81 54 17 31 25 35 64 35 19 0 37 3 41 7 3 3 -23 5 -58 3 -59 -3 -65 -5 -68 -26 -2 -12 -7 -22 -11 -22 -4 0 -68 14 -142 30 -73 17 -144 33 -157 36 -30 6 -27 49 3 50 123 5 264 18 260 24 -2 4 -66 6 -142 5 -124 -2 -140 0 -165 18 -38 28 -121 19 -205 -24 -35 -18 -66 -30 -69 -27 -7 8 45 44 98 67 37 17 39 20 17 20 -14 1 -46 -10 -71 -23 l-46 -24 -33 41 c-18 23 -39 45 -45 50 -7 4 -20 14 -28 23 -9 8 -28 21 -42 29 -22 11 -53 66 -54 95 0 3 33 3 72 2 40 -2 70 -1 67 2 -3 4 -22 7 -42 8 -49 2 -36 18 14 18 32 0 41 4 49 23 8 21 9 21 9 1 1 -11 -5 -26 -11 -33 -11 -10 -10 -12 2 -10 8 1 29 -3 45 -10 40 -17 52 -19 105 -20 64 -2 77 -12 55 -44 -9 -14 -15 -36 -13 -49 2 -19 9 -23 38 -24 37 0 71 27 90 74 13 31 31 24 53 -21 12 -27 24 -37 40 -37 32 0 47 13 49 43 2 26 4 27 65 27 l63 0 0 -36 0 -35 -29 20 c-34 25 -47 26 -67 7 -34 -35 4 -82 60 -73 18 3 51 -1 72 -8 32 -11 38 -17 36 -37 -2 -13 2 -36 7 -51 7 -17 7 -27 1 -27 -6 0 -10 5 -10 11 0 5 -4 8 -9 5 -5 -4 -62 -7 -128 -8 l-118 -2 105 -21 c58 -12 120 -24 138 -28 33 -7 46 7 15 17 -10 3 23 3 72 0 62 -3 85 -1 75 6 -8 5 -29 10 -47 10 -34 0 -53 17 -33 30 8 5 11 36 8 107 l-3 99 58 -4 c38 -3 57 -1 57 7 0 6 -15 11 -32 11 -36 1 -363 27 -418 34 l-35 5 38 -11 c31 -10 37 -16 37 -40 0 -17 -7 -31 -16 -35 -21 -8 -33 8 -24 32 7 17 9 17 9 3 1 -10 6 -18 12 -18 22 0 3 35 -21 38 -14 2 -30 8 -36 13 -6 5 -33 12 -60 14 -195 19 -259 26 -261 29 -2 2 -11 411 -16 727 -2 66 2 101 11 111 8 10 39 19 81 23 l68 7 -2 71 c-2 40 -4 211 -5 380 l-2 308 37 62 c21 34 40 65 42 70 2 4 -2 7 -9 7 -7 0 -23 -16 -36 -36 -16 -25 -28 -34 -39 -29 -18 6 -1037 7 -1262 0 -80 -3 -148 -8 -153 -13 -5 -5 -10 -48 -12 -96 -2 -47 -6 -89 -8 -92 -11 -10 -69 70 -120 165 -29 56 -59 101 -66 101 -23 0 88 -201 143 -257 28 -29 56 -53 62 -53 7 0 10 37 9 113 l-1 112 713 3 713 2 -16 -29 c-8 -17 -15 -41 -15 -56 l0 -25 -663 0 -664 0 3 -65 3 -65 -33 0 c-19 0 -42 -3 -51 -6 -31 -12 -125 99 -184 219 -48 98 -71 128 -71 94z m1648 -244 l3 -53 -119 0 c-162 0 -154 11 -155 -214 -1 -170 -2 -176 -22 -177 -11 -1 -23 -1 -27 0 -18 2 -552 1 -610 -2 -47 -2 -65 0 -59 7 12 15 13 37 12 207 -1 107 -5 150 -15 164 -13 17 -26 19 -150 16 l-136 -2 -10 25 c-6 16 -6 35 -1 50 9 23 10 23 163 22 84 -1 159 -5 166 -10 6 -4 12 -3 12 3 0 6 139 10 397 11 218 0 399 2 402 5 2 3 36 4 75 3 l71 -3 3 -52z m-998 -252 l0 -181 -195 0 -195 0 0 173 c0 96 2 176 4 178 2 2 90 6 195 7 l191 4 0 -181z m920 164 c5 -3 10 -31 10 -61 0 -49 -2 -55 -18 -50 -12 4 -19 1 -19 -7 0 -9 7 -12 19 -9 14 3 18 -1 18 -21 0 -20 4 -24 20 -20 14 4 20 0 20 -12 0 -11 -5 -15 -15 -11 -11 4 -15 -2 -16 -27 0 -18 -1 -53 -2 -80 -2 -39 0 -44 10 -31 6 9 9 22 7 29 -3 7 -1 16 5 20 7 4 11 -3 11 -17 0 -13 5 -30 10 -38 7 -10 9 44 8 168 -2 140 0 182 10 182 9 0 12 -37 13 -147 1 -82 2 -161 3 -178 1 -16 0 -34 -2 -39 -3 -4 -4 -50 -3 -101 l2 -92 -58 -7 c-32 -4 -79 -10 -105 -13 l-48 -6 0 85 0 84 -37 -5 c-33 -5 -35 -6 -10 -9 15 -2 27 -10 27 -18 0 -11 -17 -14 -81 -14 -76 0 -80 -1 -63 -17 13 -13 19 -14 22 -5 5 17 134 17 131 0 -1 -7 -1 -37 0 -65 l1 -53 41 0 c33 0 40 -3 37 -17 -3 -16 -18 -18 -138 -18 l-135 0 -3 110 c-1 60 -4 109 -5 110 -1 0 -37 -1 -79 -3 l-78 -4 0 -74 0 -74 -50 0 c-27 0 -50 5 -50 10 0 6 18 10 40 10 l40 0 0 65 0 65 -255 0 c-163 0 -255 4 -255 10 0 6 80 11 218 12 119 1 242 3 272 4 30 1 142 0 248 -3 l192 -6 1 -81 c1 -45 4 -69 6 -53 4 27 5 27 79 27 l74 0 0 70 c0 67 -1 70 -24 70 -30 0 -86 20 -86 30 0 5 5 12 10 15 8 5 7 12 -1 22 -8 9 -9 17 -3 21 11 9 14 52 2 52 -18 0 -7 31 15 40 21 8 21 9 -6 9 -25 1 -27 4 -25 34 1 17 8 42 15 53 12 19 11 22 -2 28 -9 3 -13 10 -10 16 3 5 1 18 -5 27 -9 16 -10 15 -5 -4 4 -13 3 -23 -2 -23 -5 0 -9 -8 -9 -19 0 -12 5 -17 14 -13 13 4 12 2 0 -19 -15 -26 -16 -37 -4 -88 5 -19 8 -62 8 -95 0 -34 4 -66 10 -73 6 -8 -9 -11 -62 -10 l-70 1 0 176 c0 97 3 180 8 184 8 9 145 1 162 -9z m38 3 c16 -16 15 -28 -2 -28 -7 0 -16 9 -19 20 -6 23 3 26 21 8z m-1364 -181 c-1 -90 3 -157 9 -165 7 -9 5 -18 -6 -30 -16 -15 -17 -10 -17 76 0 93 -14 144 -42 155 -7 2 -64 4 -126 3 -108 -1 -112 0 -112 20 0 19 -31 70 -52 85 -4 3 61 4 145 3 85 -1 160 1 167 6 31 19 35 0 34 -153z m1374 118 c0 -14 -4 -25 -9 -25 -5 0 -9 11 -9 25 0 14 4 25 9 25 5 0 9 -11 9 -25z m-1721 -17 c40 -38 41 -60 8 -100 -21 -25 -25 -40 -25 -93 0 -48 -4 -64 -16 -69 -9 -3 -85 -6 -169 -6 -130 0 -154 2 -159 16 -3 9 -6 76 -6 150 l0 134 167 0 167 0 33 -32z m1723 -48 c0 -16 -4 -30 -9 -30 -5 0 -11 14 -13 30 -3 20 0 30 9 30 8 0 13 -12 13 -30z m0 -90 c0 -5 -4 -10 -10 -10 -5 0 -10 5 -10 10 0 6 5 10 10 10 6 0 10 -4 10 -10z m0 -40 c0 -5 -4 -10 -10 -10 -5 0 -10 5 -10 10 0 6 5 10 10 10 6 0 10 -4 10 -10z m-9 -129 c10 -2 5 -80 -6 -84 -24 -8 -100 -1 -98 9 1 5 -2 27 -6 47 l-9 36 57 -4 c31 -2 59 -4 62 -4z m-1071 -20 c0 -12 9 -21 24 -25 26 -6 70 -68 63 -89 -2 -6 -13 7 -25 29 -27 53 -60 65 -149 57 -49 -5 -64 -3 -59 5 5 9 -10 12 -53 12 -34 0 -61 -4 -61 -10 0 -5 -7 -10 -15 -10 -18 0 -20 36 -2 43 6 3 72 6 145 6 123 1 132 0 132 -18z m290 -21 c0 -5 -5 -12 -11 -15 -5 -4 -14 -18 -19 -31 -8 -19 -16 -24 -42 -23 -18 1 -44 4 -58 8 -17 5 -31 3 -42 -7 -16 -14 -19 -12 -29 16 -6 18 -15 32 -20 32 -5 0 -9 6 -9 13 0 10 27 14 115 14 63 1 115 -3 115 -7z m208 1 c6 -1 12 -12 12 -25 0 -20 -6 -25 -31 -28 -26 -2 -33 -9 -43 -38 -11 -35 -12 -35 -73 -37 -64 -2 -75 4 -48 27 18 15 20 61 3 78 -26 26 42 35 180 23z m170 -65 l3 -66 -54 0 -55 0 -4 63 c-3 34 -2 64 3 67 4 3 29 4 56 4 l48 -1 3 -67z m-851 58 c-3 -3 -12 -4 -19 -1 -8 3 -5 6 6 6 11 1 17 -2 13 -5z m493 -44 c0 -63 -75 -89 -157 -55 -52 22 -30 39 24 20 47 -16 90 -7 98 20 3 8 7 22 10 30 8 26 25 16 25 -15z m-400 -3 c0 -21 -4 -23 -55 -24 -30 0 -55 4 -55 8 0 5 23 9 52 9 28 0 48 3 44 7 -14 14 -101 9 -108 -7 -5 -11 -7 -9 -7 8 -1 21 3 22 64 22 61 0 65 -1 65 -23z m128 -64 c2 -69 0 -83 -13 -83 -12 0 -15 12 -15 55 0 30 5 55 10 55 6 0 10 5 10 11 0 7 -18 10 -50 7 -47 -3 -50 -1 -50 20 0 22 3 23 53 20 l52 -3 3 -82z m452 43 c0 -11 -19 -15 -25 -6 -3 5 1 10 9 10 9 0 16 -2 16 -4z m-500 -55 c0 -22 3 -48 6 -58 5 -17 5 -17 -9 0 -8 9 -24 17 -36 17 -18 0 -21 6 -21 40 0 38 2 40 30 40 28 0 30 -2 30 -39z m-108 24 c10 -4 13 -16 10 -36 -2 -17 1 -41 8 -55 16 -29 -19 -28 596 -25 l462 1 -2 -23 -1 -23 -537 -1 c-296 -1 -542 -4 -546 -7 -5 -3 -8 35 -8 85 0 49 1 89 2 89 1 0 9 -2 16 -5z m218 -19 c0 -15 -24 -28 -34 -19 -13 14 -5 33 14 33 11 0 20 -6 20 -14z m585 -47 c4 -11 5 -22 3 -24 -2 -2 -147 -5 -321 -7 -292 -3 -317 -2 -317 14 0 9 5 20 12 24 7 5 9 2 5 -9 -4 -11 -2 -14 9 -10 7 3 14 11 14 19 0 12 49 14 294 14 289 0 295 0 301 -21z m-747 -17 c2 -7 -3 -12 -12 -12 -9 0 -16 7 -16 16 0 17 22 14 28 -4z m1020 -114 c7 -7 12 -19 12 -27 -1 -13 -2 -13 -11 1 -9 17 -46 18 -540 18 -339 0 -538 -4 -550 -10 -15 -8 -17 -7 -13 4 3 8 13 17 22 19 10 3 253 5 542 6 397 1 529 -2 538 -11z m-8 -53 c0 -12 -14 -15 -70 -15 -56 0 -70 -3 -70 -15 0 -8 5 -15 11 -15 5 0 7 5 4 10 -3 6 -1 10 4 10 6 0 11 -5 11 -11 0 -8 18 -10 55 -7 l55 5 -2 -286 -3 -286 -97 -3 c-91 -3 -98 -1 -98 16 0 18 9 20 90 21 80 2 90 0 91 -16 0 -11 3 -13 6 -5 7 18 -16 42 -41 42 -17 0 -21 6 -21 32 0 26 -5 33 -25 38 l-25 6 0 194 0 195 45 3 c46 3 70 16 70 36 0 7 -3 6 -9 -2 -11 -18 -143 -12 -149 7 -3 8 0 11 7 7 6 -4 11 -1 11 6 0 13 -161 14 -602 6 -69 -2 -121 0 -115 4 8 5 6 8 -5 8 -10 0 -18 -4 -18 -10 0 -5 -5 -10 -11 -10 -5 0 -7 6 -3 13 5 8 2 8 -9 -2 -13 -10 -20 -11 -31 -2 -11 9 -15 9 -19 -1 -3 -10 -8 -10 -17 -2 -7 7 -28 10 -51 7 -35 -5 -39 -3 -39 16 l0 21 535 0 c469 0 535 -2 535 -15z m17 -402 c-1 -71 -3 -13 -3 127 0 140 2 198 3 128 2 -71 2 -185 0 -255z m-1067 104 c0 -191 3 -266 12 -275 8 -8 46 -12 103 -12 125 0 91 -19 -40 -22 l-100 -2 83 -3 c114 -5 104 -23 -13 -23 l-95 0 0 26 c0 14 4 23 10 19 6 -4 10 9 10 32 0 21 2 124 4 228 2 105 4 214 5 243 1 28 6 52 11 52 6 0 10 -94 10 -263z m859 110 c2 -78 4 -190 5 -249 1 -65 5 -108 11 -108 6 0 -1 -6 -15 -13 -23 -13 -29 -11 -71 19 -25 19 -48 32 -51 29 -2 -2 -4 20 -4 49 1 30 4 52 9 49 4 -2 7 -21 7 -41 0 -28 3 -33 10 -22 11 17 13 63 4 73 -4 4 -8 33 -9 64 -2 86 -45 153 -126 197 -39 22 -182 56 -234 56 -39 0 -45 3 -36 13 6 8 8 17 4 20 -3 4 106 7 243 7 l249 0 4 -143z m31 112 c0 -5 5 -7 10 -4 6 4 10 -30 10 -94 0 -70 -4 -101 -12 -105 -8 -4 -9 -8 -3 -11 6 -3 10 -51 9 -120 l-2 -115 27 1 c23 2 24 2 4 6 -31 6 -29 23 2 21 19 -2 25 -8 25 -25 0 -20 -5 -23 -35 -23 l-35 0 -1 98 c-1 53 -1 103 0 110 1 6 -3 12 -9 12 -6 0 -10 46 -10 130 0 80 4 130 10 130 6 0 10 -5 10 -11z m-933 -481 c-3 -8 -6 -5 -6 6 -1 11 2 17 5 13 3 -3 4 -12 1 -19z m983 -78 c0 -13 -11 -13 -30 0 -12 8 -11 10 8 10 12 0 22 -4 22 -10z m-898 -13 c73 0 78 -9 19 -36 -84 -38 -180 -122 -224 -193 -10 -16 -24 -28 -32 -28 -12 0 -15 21 -15 119 0 114 1 119 22 124 12 4 28 1 35 -5 9 -7 13 -7 13 1 0 6 10 11 23 11 12 0 29 5 37 10 8 5 24 7 35 3 11 -4 50 -6 87 -6z m-272 -131 c0 -129 -1 -135 -20 -133 -19 1 -20 8 -20 132 0 75 4 124 9 117 7 -11 9 -11 14 2 14 35 17 10 17 -118z m-232 102 c-27 -7 -38 -15 -38 -29 0 -10 -4 -19 -10 -19 -5 0 -10 14 -10 30 0 29 1 30 48 29 l47 -1 -37 -10z m173 5 c1 -14 1 -207 0 -220 -1 -19 -49 -16 -79 6 -29 19 -99 22 -210 6 l-53 -7 3 43 c3 41 5 44 38 50 19 4 42 17 51 28 10 12 26 21 37 21 12 0 23 9 27 20 4 11 10 18 15 15 5 -3 18 3 29 14 10 10 27 21 38 23 40 7 103 8 104 1z m1597 -50 c-18 -27 -34 -50 -35 -52 -2 -2 -6 -1 -9 2 -8 7 56 96 69 97 5 0 -7 -21 -25 -47z m-598 29 c0 -8 -43 -32 -57 -32 -3 0 2 9 12 20 18 20 45 27 45 12z m636 -37 c-15 -19 -32 -35 -37 -35 -5 0 5 18 22 40 39 49 53 45 15 -5z m412 9 c19 -6 22 -13 22 -57 l0 -50 -51 6 c-66 8 -75 17 -71 66 4 40 5 41 41 41 20 0 46 -3 59 -6z m-2310 -30 c-9 -9 -36 -18 -59 -21 l-44 -5 3 -59 c3 -38 0 -59 -7 -59 -7 0 -11 23 -11 60 0 33 -4 60 -10 60 -5 0 -10 7 -10 15 0 11 12 15 43 16 23 1 56 4 72 8 37 9 43 5 23 -15z m2170 -26 c21 -18 13 -26 -20 -19 -20 4 -34 14 -36 25 -3 15 0 17 20 11 12 -4 29 -12 36 -17z m152 -108 c0 -27 -4 -50 -10 -50 -5 0 -10 23 -10 50 0 28 5 50 10 50 6 0 10 -22 10 -50z m-2033 -40 c29 0 32 -2 21 -14 -22 -22 -78 -26 -88 -6 -11 20 -2 33 18 25 7 -3 29 -5 49 -5z m1631 -22 c17 -17 15 -28 -4 -28 -9 0 -12 5 -8 11 5 9 -11 10 -60 5 -43 -5 -66 -4 -66 3 0 9 30 15 101 19 14 1 30 -3 37 -10z m325 -15 c-7 -2 -19 -2 -25 0 -7 3 -2 5 12 5 14 0 19 -2 13 -5z m-2237 -31 c-3 -5 -32 -13 -63 -17 -32 -3 -68 -9 -80 -12 -16 -3 -23 -1 -23 9 0 11 22 17 83 24 89 10 92 10 83 -4z m-449 -26 c30 -27 31 -26 -40 -11 -24 5 -27 8 -17 20 17 20 24 19 57 -9z m718 4 c-4 -6 -9 -8 -13 -6 -4 2 -26 1 -50 -4 -23 -4 -42 -4 -42 1 0 7 20 10 93 17 10 1 15 -3 12 -8z m-276 -36 c6 -14 9 -30 6 -35 -10 -16 -137 -9 -184 10 l-44 18 89 15 c121 21 119 21 133 -8z m111 15 c0 -8 23 -9 78 -4 87 8 96 1 12 -10 -30 -4 -58 -9 -62 -11 -10 -7 -36 7 -42 22 -3 8 -1 14 4 14 6 0 10 -5 10 -11z m1835 -5 c17 -4 36 -6 43 -5 18 3 15 -7 -6 -18 -13 -7 -27 -6 -45 4 -15 8 -27 10 -27 4 0 -5 -5 -9 -11 -9 -5 0 -7 5 -4 10 3 6 2 10 -4 10 -5 0 -13 -4 -16 -10 -3 -5 -11 -10 -17 -10 -6 0 -3 9 7 20 10 11 25 18 34 16 9 -2 30 -8 46 -12z m258 -4 c51 -8 77 -17 77 -26 0 -10 -7 -11 -27 -4 -16 5 -54 14 -85 20 -32 6 -61 16 -64 22 -5 7 -2 9 8 6 8 -3 49 -12 91 -18z m-2123 -75 c0 -7 -55 -6 -63 1 -3 3 -1 17 5 30 l12 25 23 -25 c13 -14 23 -28 23 -31z m1990 28 c0 -9 -7 -24 -16 -34 -15 -16 -14 -17 4 -12 11 2 23 -1 27 -7 5 -9 -8 -10 -51 -5 -67 8 -76 13 -53 25 9 5 27 18 40 29 29 25 49 27 49 4z m-2345 -43 c10 -11 14 -20 8 -20 -5 0 -18 9 -28 20 -10 11 -14 20 -8 20 5 0 18 -9 28 -20z m-26 -14 c9 -10 8 -15 -1 -19 -7 -3 -30 -12 -50 -21 -38 -16 -38 -16 -38 7 0 38 65 62 89 33z m264 -83 c-24 -2 -62 -2 -85 0 -24 2 -5 4 42 4 47 0 66 -2 43 -4z"/> <path d="M933 2633 c4 -3 23 -6 42 -5 25 1 35 -3 35 -13 0 -10 -10 -15 -30 -15 -16 0 -30 -4 -30 -10 0 -5 11 -10 25 -10 14 0 25 -5 25 -11 0 -7 -12 -10 -29 -7 l-29 4 -4 -75 c-4 -64 -2 -79 14 -97 14 -16 15 -23 6 -32 -9 -9 -9 -15 1 -24 9 -8 11 -8 8 -2 -4 7 0 15 9 18 23 9 34 7 34 -4 0 -5 -7 -10 -15 -10 -8 0 -15 -4 -15 -10 0 -14 13 -13 28 2 7 7 12 8 12 4 0 -5 7 -3 15 4 8 7 15 23 15 36 0 35 15 29 18 -7 1 -18 5 -36 8 -40 11 -18 34 -8 40 16 3 14 11 25 18 24 37 -4 66 2 66 16 0 8 5 16 10 16 40 5 43 3 44 -29 1 -21 -4 -32 -13 -32 -8 0 -11 6 -7 16 3 8 2 12 -4 9 -20 -12 -10 -35 15 -35 23 0 25 4 25 45 l0 45 -44 0 c-35 0 -44 -3 -42 -17 1 -13 -7 -17 -29 -18 -23 0 -30 4 -29 18 1 9 -4 17 -12 17 -8 0 -14 -16 -17 -47 l-3 -48 -2 48 c-2 45 -3 47 -32 47 -29 0 -30 -2 -26 -35 3 -19 0 -35 -5 -35 -5 0 -9 16 -9 35 0 34 -1 35 -40 35 -22 0 -40 5 -40 10 0 6 62 10 165 10 l165 0 0 80 0 80 -125 0 c-71 0 -125 4 -125 9 0 15 18 23 25 11 4 -6 13 -5 25 2 13 9 43 9 109 2 71 -7 91 -6 91 3 0 10 -41 13 -172 13 -94 0 -168 -3 -165 -7z m127 -115 c0 -51 -2 -58 -20 -58 -18 0 -20 7 -20 58 0 51 2 58 20 58 18 0 20 -7 20 -58z m194 -1 l1 -57 -92 0 c-83 0 -91 2 -86 18 7 27 40 44 62 33 20 -11 61 -4 61 11 0 5 -10 9 -22 8 -43 -4 -59 0 -52 11 3 6 21 9 39 7 19 -2 31 0 28 5 -6 10 -93 6 -93 -5 0 -16 -18 -8 -23 11 -4 17 2 18 85 17 l90 -1 2 -58z m-254 8 c0 -14 -5 -25 -11 -25 -6 0 -9 7 -5 15 4 10 -1 15 -14 15 -11 0 -20 5 -20 10 0 6 11 10 25 10 20 0 25 -5 25 -25z m100 -5 c0 -5 -4 -10 -10 -10 -5 0 -10 5 -10 10 0 6 5 10 10 10 6 0 10 -4 10 -10z m-130 -15 c0 -8 7 -15 15 -15 8 0 15 -7 15 -15 0 -9 -9 -15 -24 -15 -21 0 -25 5 -24 30 1 30 18 44 18 15z m35 -105 c-3 -5 -12 -10 -20 -10 -8 0 -17 5 -20 10 -4 6 5 10 20 10 15 0 24 -4 20 -10z"/> <path d="M1030 2515 c0 -27 3 -45 7 -42 7 8 6 77 -2 85 -3 3 -5 -16 -5 -43z"/> <path d="M1210 2534 c0 -8 5 -12 10 -9 6 4 8 11 5 16 -9 14 -15 11 -15 -7z"/> <path d="M2070 2485 c0 -117 4 -175 11 -175 5 0 7 5 4 10 -3 6 0 10 8 10 10 0 13 9 11 30 -3 22 1 30 12 30 11 0 15 -9 14 -27 -3 -43 -1 -55 10 -48 5 3 7 50 4 118 -7 136 -6 165 1 196 6 22 4 23 -10 11 -8 -7 -19 -10 -22 -6 -4 4 -1 11 7 16 13 8 12 10 -2 10 -10 0 -18 -7 -18 -15 0 -8 -5 -15 -11 -15 -6 0 -9 7 -5 15 3 8 1 15 -4 15 -6 0 -10 -69 -10 -175z m53 115 c3 -13 -3 -24 -19 -35 -22 -14 -24 -14 -24 0 0 9 5 13 10 10 6 -4 10 5 10 19 0 31 15 35 23 6z m4 -128 c1 -54 -2 -72 -12 -72 -8 0 -13 14 -14 38 0 20 -3 51 -5 67 -5 35 1 48 17 42 8 -2 13 -31 14 -75z"/> <path d="M1963 2124 c-7 -20 17 -37 34 -23 15 13 6 39 -13 39 -8 0 -17 -7 -21 -16z"/> <path d="M485 2460 c0 -97 3 -140 11 -140 15 0 14 272 -1 277 -6 2 -10 -48 -10 -137z"/> <path d="M290 2510 c-24 -24 -25 -38 -4 -68 22 -31 88 -31 108 1 40 60 -52 119 -104 67z m64 -1 c33 -15 40 -38 21 -59 -29 -31 -101 -8 -88 28 5 14 31 42 39 42 2 0 14 -5 28 -11z"/> <path d="M260 2375 c0 -12 16 -15 80 -15 64 0 80 3 80 15 0 12 -16 15 -80 15 -64 0 -80 -3 -80 -15z"/> <path d="M1066 2245 c-3 -8 -1 -15 4 -15 6 0 10 7 10 15 0 8 -2 15 -4 15 -2 0 -6 -7 -10 -15z"/> <path d="M1550 2130 c0 -5 7 -7 15 -4 8 4 15 8 15 10 0 2 -7 4 -15 4 -8 0 -15 -4 -15 -10z"/> <path d="M958 1163 c5 -21 7 -23 10 -9 2 10 0 22 -6 28 -6 6 -7 0 -4 -19z"/> <path d="M922 1166 c7 -8 15 -12 17 -11 5 6 -10 25 -20 25 -5 0 -4 -6 3 -14z"/> <path d="M2391 2933 l-41 -69 0 -194 c0 -106 2 -191 4 -189 2 2 6 77 8 166 3 90 7 165 10 169 4 3 16 1 27 -5 22 -12 74 -4 66 9 -3 5 4 42 15 82 11 40 20 78 20 85 0 24 -18 13 -25 -14 -14 -58 -36 -128 -43 -141 -10 -16 -72 3 -72 22 0 7 18 41 41 76 22 34 38 64 35 67 -2 2 -23 -26 -45 -64z"/> <path d="M2431 2920 c-12 -34 -20 -66 -18 -73 2 -7 14 19 26 57 27 86 21 97 -8 16z"/> <path d="M20 2925 c14 -15 43 -41 65 -58 l40 -31 -45 48 c-50 53 -105 91 -60 41z"/> <path d="M1 2913 c0 -5 14 -19 32 -32 l32 -25 -29 32 c-31 33 -36 37 -35 25z"/> <path d="M2910 2863 c-14 -16 -41 -39 -62 -53 -20 -13 -43 -36 -52 -51 -19 -33 -20 -95 -2 -129 13 -22 12 -27 -10 -53 -13 -16 -24 -35 -24 -43 0 -9 -18 -54 -41 -102 -22 -48 -50 -114 -61 -147 -25 -74 -48 -115 -65 -116 -7 -1 -16 -2 -20 -3 -10 -2 -83 -13 -140 -21 l-42 -6 -3 228 c-2 125 -2 243 0 261 3 30 5 32 16 17 9 -13 26 -17 61 -17 68 2 70 12 2 12 -39 0 -57 4 -57 13 0 6 -9 23 -20 37 -20 25 -20 25 -20 -272 0 -220 -3 -298 -12 -298 -6 0 -9 -3 -5 -6 5 -5 280 33 282 39 7 33 68 194 98 257 21 47 42 99 46 115 5 24 26 43 113 100 103 67 122 85 96 85 -20 0 -18 168 2 174 8 2 -1 4 -20 5 -27 1 -42 -6 -60 -26z m50 -77 c0 -88 -4 -96 -51 -96 -17 0 -20 6 -17 42 2 23 9 43 16 46 9 3 13 -3 12 -14 -4 -37 0 -64 10 -64 6 0 10 31 10 72 l0 72 -35 -34 c-30 -29 -35 -40 -35 -81 0 -41 -4 -50 -29 -68 -16 -12 -31 -21 -33 -21 -1 0 -1 24 0 54 4 51 6 55 65 107 34 30 64 57 65 61 2 5 8 8 13 8 5 0 9 -38 9 -84z m-80 -130 c0 -2 -8 -10 -17 -17 -16 -13 -17 -12 -4 4 13 16 21 21 21 13z"/> <path d="M2497 2753 c9 -26 18 -43 20 -37 4 11 -24 84 -32 84 -2 0 3 -21 12 -47z"/> <path d="M2522 2680 c0 -14 2 -19 5 -12 2 6 2 18 0 25 -3 6 -5 1 -5 -13z"/> <path d="M213 2683 c15 -2 39 -2 55 0 15 2 2 4 -28 4 -30 0 -43 -2 -27 -4z"/> <path d="M338 2683 c18 -2 45 -2 60 0 15 2 0 4 -33 4 -33 0 -45 -2 -27 -4z"/> <path d="M2894 2567 l-99 -62 -12 -100 c-13 -114 -34 -188 -59 -216 -25 -27 -39 -23 -20 5 20 32 58 170 54 199 -2 14 -22 -27 -54 -110 l-51 -132 26 5 c39 6 155 24 162 24 3 0 0 28 -8 63 -20 92 -28 217 -15 217 6 0 14 -21 17 -47 12 -91 35 -216 39 -220 3 -3 32 -2 65 2 43 5 61 11 61 21 0 14 -34 13 -91 -2 -21 -6 -28 26 -35 154 -4 63 -2 92 5 92 7 0 11 -28 11 -76 0 -47 4 -73 10 -69 17 11 12 141 -6 156 -13 10 -17 10 -24 -1 -7 -12 -13 -12 -34 -1 -28 16 -23 23 34 55 19 11 44 28 54 38 10 9 23 15 28 12 4 -3 8 -1 8 4 0 5 9 12 20 15 11 3 20 12 20 21 0 9 -1 16 -3 16 -2 0 -48 -28 -103 -63z m-88 -312 c6 -49 -3 -65 -37 -65 -14 0 -13 7 4 60 11 33 22 59 24 56 2 -2 7 -25 9 -51z"/> <path d="M744 2469 c-4 -8 1 -9 15 -4 28 9 51 -10 51 -42 0 -16 -7 -27 -20 -30 -16 -4 -20 -14 -20 -44 l0 -39 -45 0 -45 0 0 39 c0 39 1 40 38 44 28 3 -54 1 -101 -2 -5 -1 -6 -5 -2 -10 3 -6 15 -8 26 -6 16 3 20 -1 18 -18 -2 -12 1 -32 5 -44 6 -20 14 -23 56 -23 41 0 51 4 62 23 7 12 11 30 9 40 -1 10 6 25 16 32 17 12 18 10 24 -28 l6 -42 1 48 c2 52 -17 101 -43 111 -25 9 -43 7 -51 -5z"/> <path d="M620 2425 c9 -11 34 -15 96 -15 68 0 84 3 84 15 0 12 -17 15 -96 15 -85 0 -95 -2 -84 -15z"/> <path d="M702 2370 c10 -6 25 -7 40 -1 20 9 18 10 -17 10 -31 0 -36 -2 -23 -9z"/> <path d="M708 2343 c12 -2 30 -2 40 0 9 3 -1 5 -23 4 -22 0 -30 -2 -17 -4z"/> <path d="M40 2248 c0 -7 -3 -23 -6 -35 -4 -15 2 -30 20 -48 l27 -26 0 -423 c1 -334 4 -426 14 -440 13 -16 25 -18 132 -12 65 4 126 9 136 12 26 8 17 36 -17 52 -20 10 -25 17 -17 25 6 6 11 20 11 32 0 20 5 21 198 23 108 2 205 5 214 8 23 7 23 41 1 48 -10 3 -102 4 -205 2 -128 -2 -186 0 -185 8 4 19 43 33 106 38 69 5 94 20 71 43 -11 10 -49 15 -153 17 -82 2 -137 7 -137 13 -1 6 16 12 36 15 56 8 56 33 -1 63 -29 16 -26 16 78 13 87 -2 112 0 124 12 14 14 13 17 -3 29 -10 7 -38 13 -64 13 -34 0 -48 5 -58 20 -7 12 -23 20 -38 20 -20 0 -25 4 -20 16 3 8 2 23 -3 32 -6 12 -5 24 5 36 10 14 11 23 3 33 -21 25 -2 43 45 43 57 0 67 21 27 61 -17 16 -25 32 -19 35 5 4 8 24 6 46 l-4 40 41 -6 c22 -4 58 -8 80 -10 22 -2 63 -6 90 -10 120 -17 266 -36 275 -36 6 0 10 -115 9 -306 0 -197 3 -310 10 -317 13 -13 59 -18 66 -7 3 4 5 135 5 289 1 248 2 281 16 281 14 0 15 -35 11 -321 -3 -177 -9 -325 -14 -330 -4 -4 -66 -10 -138 -13 -158 -8 -182 -12 -195 -37 -9 -17 -7 -19 17 -18 23 0 25 2 9 8 -36 14 -3 19 166 26 l168 8 2 368 3 369 -25 5 c-14 2 -160 23 -325 45 -165 22 -338 47 -385 54 -47 8 -111 17 -142 21 -53 6 -58 8 -58 32 0 22 3 24 28 19 15 -4 214 -33 442 -66 228 -33 430 -62 448 -65 l32 -6 -2 -407 -3 -407 -100 -7 c-55 -4 -237 -14 -405 -22 -331 -17 -444 -26 -437 -33 3 -2 78 1 168 6 90 6 229 13 309 16 305 13 463 24 472 33 14 14 10 834 -3 843 -6 3 -52 12 -103 19 -111 14 -332 49 -609 95 -232 39 -247 40 -247 23z m197 -104 c89 -14 128 -24 92 -24 -29 1 -201 29 -207 34 -8 9 10 7 115 -10z m6 -25 c53 -7 97 -16 97 -20 0 -5 -12 -6 -27 -4 -140 25 -203 30 -203 17 0 -4 17 -7 38 -5 36 2 36 2 7 -7 -22 -6 -13 -7 35 -5 67 4 62 1 -28 -16 -30 -6 -51 -13 -49 -15 3 -3 39 2 81 10 41 9 88 16 103 15 18 -1 6 -6 -32 -15 -60 -13 -60 -13 -10 -8 28 3 60 8 73 11 18 4 22 1 22 -21 0 -14 -1 -26 -2 -26 -2 0 -39 7 -83 15 -44 7 -99 11 -122 8 l-43 -6 0 48 c0 44 1 47 23 41 12 -3 66 -11 120 -17z m-68 -79 c-4 -6 7 -10 27 -10 59 0 108 -12 108 -26 0 -9 12 -14 32 -14 17 0 28 -3 25 -6 -4 -4 -57 -1 -119 7 -88 10 -106 15 -83 21 20 5 15 5 -17 2 -38 -4 -48 -2 -48 10 0 9 12 16 33 19 17 2 36 5 40 5 5 1 5 -2 2 -8z m717 -72 c-1 -381 -3 -541 -7 -536 -6 5 -7 87 -6 417 1 112 4 202 7 198 3 -3 6 -38 6 -79z m26 -235 c-2 -326 -6 -296 -10 80 -2 125 0 227 5 227 4 0 6 -138 5 -307z m42 292 c0 -8 -7 -15 -15 -15 -8 0 -15 7 -15 15 0 8 7 15 15 15 8 0 15 -7 15 -15z m-725 -45 c44 -6 97 -12 117 -13 21 -2 41 -7 45 -12 5 -4 -26 -5 -67 -2 -224 19 -230 20 -230 34 0 11 8 13 28 9 15 -3 63 -10 107 -16z m28 -39 c36 -1 35 -18 -2 -23 -17 -2 -28 -1 -25 4 3 4 -7 8 -21 8 -42 0 -24 -25 20 -28 51 -4 92 -42 43 -40 -13 1 -39 1 -58 0 -32 -2 -33 -4 -15 -14 19 -12 18 -13 -10 -19 -23 -5 -17 -7 27 -8 31 0 60 -5 63 -11 7 -12 -35 -13 -124 -4 l-61 7 0 71 0 72 68 -7 c37 -5 79 -8 95 -8z m-123 -151 c-22 -5 -2 -7 55 -4 60 2 82 1 65 -5 -14 -5 -50 -10 -80 -11 -43 -2 -30 -5 60 -14 70 -7 108 -14 97 -18 -10 -5 -28 -8 -40 -9 -54 -2 32 -17 106 -18 50 -1 77 -5 77 -12 0 -8 -26 -10 -87 -6 -49 4 -134 10 -190 13 l-103 7 0 43 0 44 38 -1 37 -2 -35 -7z m137 -26 c-3 -3 -12 -4 -19 -1 -8 3 -5 6 6 6 11 1 17 -2 13 -5z m-77 -78 c0 -8 -10 -17 -22 -19 -14 -3 -6 -5 20 -7 57 -3 59 -4 68 -12 4 -5 -19 -9 -52 -10 -53 -2 -51 -2 26 -8 67 -5 74 -7 32 -8 -33 -1 -51 -6 -47 -12 3 -6 -6 -15 -22 -22 l-28 -12 28 -4 c15 -2 27 -8 27 -13 0 -5 64 -9 150 -9 93 0 150 -4 150 -10 0 -6 -30 -10 -70 -10 -40 0 -70 -4 -70 -10 0 -5 -19 -10 -42 -10 -69 0 -148 -12 -142 -21 3 -5 37 -9 76 -9 60 0 69 -2 58 -14 -6 -8 -17 -13 -23 -10 -7 2 -32 0 -57 -5 -29 -6 53 -7 228 -4 202 5 272 3 272 -5 0 -8 -32 -12 -103 -12 -57 0 -206 -3 -330 -7 l-227 -6 0 141 0 142 50 0 c37 0 50 -4 50 -14z m-5 -285 c-6 -5 -28 -11 -50 -14 -22 -2 12 -4 75 -5 82 -2 111 -5 103 -13 -6 -6 -55 -11 -112 -12 -108 -2 -140 -16 -43 -19 l57 -2 -50 -3 c-99 -8 -64 -20 49 -18 70 2 116 -1 116 -7 0 -5 4 -7 9 -3 5 3 12 1 16 -5 4 -6 -11 -10 -38 -10 -24 0 -85 -3 -135 -6 l-92 -7 0 67 0 66 52 0 c32 0 48 -4 43 -9z"/> <path d="M293 2053 c9 -2 23 -2 30 0 6 3 -1 5 -18 5 -16 0 -22 -2 -12 -5z"/> <path d="M238 2003 c12 -2 30 -2 40 0 9 3 -1 5 -23 4 -22 0 -30 -2 -17 -4z"/> <path d="M120 1920 c-11 -7 -7 -10 17 -10 17 0 35 5 38 10 8 13 -35 13 -55 0z"/> <path d="M128 1893 c12 -2 30 -2 40 0 9 3 -1 5 -23 4 -22 0 -30 -2 -17 -4z"/> <path d="M213 1883 c9 -2 23 -2 30 0 6 3 -1 5 -18 5 -16 0 -22 -2 -12 -5z"/> <path d="M115 1860 c-8 -13 35 -13 55 0 11 7 7 10 -17 10 -17 0 -35 -4 -38 -10z"/> <path d="M114 1729 c-4 -8 16 -9 72 -4 44 4 81 9 83 11 2 2 -30 4 -72 4 -44 0 -79 -5 -83 -11z"/> <path d="M118 1683 c6 -2 18 -2 25 0 6 3 1 5 -13 5 -14 0 -19 -2 -12 -5z"/> <path d="M118 1663 c7 -3 16 -2 19 1 4 3 -2 6 -13 5 -11 0 -14 -3 -6 -6z"/> <path d="M118 1623 c7 -3 16 -2 19 1 4 3 -2 6 -13 5 -11 0 -14 -3 -6 -6z"/> <path d="M133 1603 c15 -2 39 -2 55 0 15 2 2 4 -28 4 -30 0 -43 -2 -27 -4z"/> <path d="M123 1573 c9 -2 25 -2 35 0 9 3 1 5 -18 5 -19 0 -27 -2 -17 -5z"/> <path d="M188 1553 c7 -3 16 -2 19 1 4 3 -2 6 -13 5 -11 0 -14 -3 -6 -6z"/> <path d="M170 1519 c25 -4 56 -7 70 -7 23 0 22 1 -5 8 -16 4 -48 8 -70 8 l-40 -1 45 -8z"/> <path d="M138 1483 c7 -3 16 -2 19 1 4 3 -2 6 -13 5 -11 0 -14 -3 -6 -6z"/> <path d="M138 1453 c12 -2 30 -2 40 0 9 3 -1 5 -23 4 -22 0 -30 -2 -17 -4z"/> <path d="M2960 2183 c-14 -2 -65 -11 -115 -19 -155 -27 -194 -33 -425 -67 l-225 -33 -1 -154 0 -155 6 125 c3 69 7 121 8 115 2 -5 3 -165 2 -355 0 -190 3 -350 7 -356 9 -12 399 -41 410 -30 3 3 -24 6 -62 6 -60 0 -66 2 -54 16 20 24 -41 74 -91 74 -42 0 -50 5 -43 28 3 14 17 17 86 16 86 -1 117 7 117 31 0 18 -26 24 -114 27 -67 3 -69 4 -73 31 l-4 27 129 0 c163 0 194 5 190 34 -3 20 -9 21 -106 21 -56 0 -102 2 -102 5 1 3 7 16 15 30 18 31 19 72 3 88 -7 7 -30 12 -52 12 -38 0 -41 2 -42 30 -1 16 2 29 5 28 81 -9 159 24 132 56 -12 14 -11 16 7 16 11 0 26 7 33 16 11 14 10 19 -11 35 -14 10 -29 22 -34 26 -5 5 -34 7 -65 5 -50 -3 -54 -2 -41 11 8 9 40 18 70 21 117 12 216 29 227 38 23 19 -3 46 -39 43 -106 -10 -166 -16 -185 -20 -13 -3 -23 -1 -23 5 0 10 19 16 85 24 22 3 96 14 165 24 l125 17 -1 -317 c-1 -356 -8 -325 79 -338 36 -5 47 -3 47 7 0 9 -14 13 -45 13 -25 0 -45 5 -45 10 0 6 20 10 45 10 26 0 45 5 45 11 0 7 -11 8 -30 4 -19 -4 -30 -3 -30 4 0 7 14 14 30 17 41 9 38 19 -5 19 -30 1 -35 -3 -35 -22 0 -13 -5 -23 -11 -23 -6 0 -9 26 -8 70 1 44 6 70 13 69 6 -1 27 -1 46 1 28 1 31 3 15 9 -11 5 -32 7 -47 5 -16 -2 -28 1 -28 6 0 6 20 10 45 10 25 0 45 5 45 10 0 6 -20 10 -45 10 l-45 0 0 91 c0 77 2 90 15 85 18 -7 75 4 75 14 0 4 -12 5 -26 2 -16 -3 -30 1 -35 9 -6 10 -9 10 -9 2 0 -7 -4 -13 -10 -13 -5 0 -10 25 -10 55 0 45 3 55 18 56 15 0 14 2 -3 10 -14 6 -5 7 28 3 40 -5 47 -4 47 11 0 15 -7 17 -45 13 -34 -4 -45 -2 -45 8 0 10 13 14 39 14 22 0 42 4 45 9 3 5 -16 7 -42 5 -35 -3 -42 -2 -27 5 11 5 32 10 48 10 15 1 27 6 27 11 0 10 -49 7 -87 -5 -10 -3 -13 -79 -16 -312 l-2 -308 -3 311 c-1 230 1 313 10 322 7 7 31 12 54 12 35 0 43 3 41 18 -1 17 -12 16 -191 -9 -105 -15 -263 -36 -351 -48 -88 -11 -181 -23 -207 -27 -43 -6 -48 -5 -48 12 0 18 28 24 338 67 453 65 462 66 462 83 0 8 -3 13 -7 13 -5 -1 -19 -4 -33 -6z m-534 -172 c-3 -4 -38 -12 -78 -15 -40 -4 -83 -10 -95 -13 -13 -3 -23 -1 -23 5 0 6 28 15 63 20 82 13 139 14 133 3z m314 -10 c0 -10 -19 -13 -295 -46 -247 -29 -225 -28 -225 -11 0 21 7 23 75 30 33 4 71 8 85 11 14 2 42 6 63 10 22 3 37 2 37 -4 0 -5 -12 -12 -27 -14 -49 -8 69 6 162 18 119 16 125 16 125 6z m-313 -78 c2 -6 -18 -13 -47 -17 -27 -4 -50 -11 -50 -17 0 -5 -10 -14 -22 -20 -22 -9 -22 -9 2 -4 14 3 72 11 129 17 80 9 106 8 109 0 2 -7 12 -12 23 -12 10 0 19 -4 19 -9 0 -4 -75 -14 -167 -21 -93 -6 -170 -14 -172 -16 -7 -6 115 -3 202 5 43 3 80 4 83 0 5 -9 -47 -17 -166 -24 -52 -3 -107 -8 -122 -11 l-26 -5 1 64 2 65 90 9 c102 11 107 11 112 -4z m123 -127 c0 -10 -30 -15 -128 -20 -70 -3 -141 -11 -157 -16 -24 -8 -15 -9 43 -7 68 3 94 -5 55 -17 -10 -2 -3 -4 16 -3 18 1 33 -2 32 -8 0 -6 -39 -11 -86 -13 -78 -3 -85 -5 -85 -23 0 -19 1 -19 22 -5 25 18 53 21 43 6 -4 -6 33 -10 104 -10 67 0 111 -4 111 -10 0 -6 -41 -10 -102 -11 -57 0 -121 -4 -143 -8 -29 -6 -1 -9 103 -10 87 -1 142 -5 142 -11 0 -6 -54 -10 -142 -10 -78 0 -138 -3 -135 -7 4 -3 63 -5 132 -4 84 2 125 -1 125 -8 0 -7 -37 -11 -106 -11 -67 0 -103 -4 -99 -10 3 -5 25 -10 48 -11 23 0 36 -3 30 -6 -36 -14 3 -18 157 -15 113 2 170 -1 170 -8 0 -7 -78 -10 -235 -10 l-235 0 -1 43 c0 23 -2 79 -3 125 -2 68 0 82 13 83 33 2 306 26 309 28 1 0 2 -5 2 -13z m-123 -232 c-3 -3 -12 -4 -19 -1 -8 3 -5 6 6 6 11 1 17 -2 13 -5z m-97 -51 c-24 -3 -48 -10 -53 -16 -7 -9 -10 -9 -14 1 -7 17 -23 15 -23 -2 0 -12 13 -14 70 -9 83 7 97 -10 18 -22 l-53 -8 40 -8 c22 -4 88 -11 147 -15 59 -4 105 -11 102 -15 -3 -5 -58 -6 -122 -3 -68 3 -134 1 -157 -4 -36 -10 -34 -10 23 -5 51 5 62 3 62 -10 0 -9 -15 -19 -37 -25 l-38 -10 33 -1 c54 -2 36 -21 -20 -21 -38 0 -49 3 -38 10 13 8 12 10 -3 10 -11 0 -17 -6 -15 -12 3 -9 37 -14 111 -16 96 -2 129 -11 95 -25 -7 -3 -1 -6 15 -6 15 -1 27 -6 27 -12 0 -6 -7 -8 -16 -5 -9 3 -70 6 -138 6 l-121 0 -1 115 -1 115 76 -2 c52 -1 62 -3 31 -5z"/> <path d="M2358 1963 c6 -2 18 -2 25 0 6 3 1 5 -13 5 -14 0 -19 -2 -12 -5z"/> <path d="M2280 1906 c0 -2 7 -6 15 -10 8 -3 15 -1 15 4 0 6 -7 10 -15 10 -8 0 -15 -2 -15 -4z"/> <path d="M2448 1863 c17 -2 47 -2 65 0 17 2 3 4 -33 4 -36 0 -50 -2 -32 -4z"/> <path d="M2358 1853 c12 -2 30 -2 40 0 9 3 -1 5 -23 4 -22 0 -30 -2 -17 -4z"/> <path d="M2251 1573 c-1 -17 5 -23 19 -23 11 0 20 5 20 10 0 6 -6 10 -14 10 -8 0 -17 6 -19 13 -3 6 -6 2 -6 -10z"/> <path d="M2258 1383 c7 -3 16 -2 19 1 4 3 -2 6 -13 5 -11 0 -14 -3 -6 -6z"/> <path d="M2258 1313 c12 -2 30 -2 40 0 9 3 -1 5 -23 4 -22 0 -30 -2 -17 -4z"/> <path d="M2978 1953 c7 -3 16 -2 19 1 4 3 -2 6 -13 5 -11 0 -14 -3 -6 -6z"/> <path d="M2938 1943 c7 -3 16 -2 19 1 4 3 -2 6 -13 5 -11 0 -14 -3 -6 -6z"/> <path d="M2946 1902 c-3 -3 -3 -9 0 -13 7 -12 54 -12 54 0 0 10 -47 21 -54 13z"/> <path d="M2921 1806 c12 -10 79 -16 79 -6 0 5 -19 10 -42 10 -23 0 -39 -2 -37 -4z"/> <path d="M1168 1793 c28 -2 76 -2 105 0 28 2 5 3 -53 3 -58 0 -81 -1 -52 -3z"/> <path d="M1130 1770 c0 -6 7 -10 15 -10 8 0 15 2 15 4 0 2 -7 6 -15 10 -8 3 -15 1 -15 -4z"/> <path d="M2948 1763 c12 -2 30 -2 40 0 9 3 -1 5 -23 4 -22 0 -30 -2 -17 -4z"/> <path d="M1365 1740 c-60 -3 -103 -7 -95 -8 10 -1 11 -5 3 -13 -7 -7 -35 -10 -72 -7 -35 2 -61 0 -61 -5 0 -6 34 -8 85 -5 47 3 85 2 85 -3 0 -5 -12 -10 -27 -10 -24 -2 -25 -2 -5 -6 45 -9 20 -23 -40 -23 -67 0 -73 -13 -6 -14 64 -1 61 -26 -4 -28 -37 -1 -27 -3 37 -7 83 -6 91 -5 98 14 21 52 94 103 165 115 l47 8 -50 -1 c-27 -1 -99 -4 -160 -7z m50 -22 c3 -2 -6 -10 -18 -17 -13 -7 -31 -26 -41 -42 -12 -20 -25 -29 -43 -29 -25 0 -25 1 -10 18 9 10 18 29 19 43 2 13 6 27 11 30 9 6 75 4 82 -3z"/> <path d="M2948 1743 c12 -2 30 -2 40 0 9 3 -1 5 -23 4 -22 0 -30 -2 -17 -4z"/> <path d="M1493 1706 c-17 -8 -34 -11 -38 -8 -8 8 4 -58 14 -73 3 -5 6 -14 6 -20 0 -11 94 -13 145 -3 19 4 29 4 22 1 -6 -2 -9 -9 -6 -15 3 -5 15 5 26 22 20 33 17 53 -4 32 -7 -7 -17 -12 -22 -12 -6 0 -4 5 4 10 12 8 10 10 -8 10 -13 0 -20 -4 -17 -10 3 -5 -3 -10 -15 -10 -12 0 -19 4 -16 9 6 10 -43 25 -52 16 -3 -3 2 -5 11 -5 36 0 22 -15 -17 -17 -28 -1 -35 1 -21 6 17 7 17 8 -8 15 -36 9 -34 22 4 35 65 22 180 8 193 -24 10 -26 -23 -84 -56 -101 -22 -12 -33 -13 -36 -5 -2 6 -8 11 -13 11 -6 0 -8 -4 -5 -8 3 -5 -16 -5 -42 0 -72 13 -74 13 -93 37 -17 21 -18 21 -24 1 -4 -11 -3 -34 0 -51 6 -26 9 -28 18 -15 11 15 51 17 72 4 6 -3 18 -4 27 -3 9 2 34 -1 54 -5 32 -7 41 -5 71 18 23 19 32 33 29 46 -3 11 4 30 15 44 26 33 25 35 -18 56 -50 25 -158 31 -200 12z m64 -92 c-3 -3 -12 -4 -19 -1 -8 3 -5 6 6 6 11 1 17 -2 13 -5z"/> <path d="M2930 1710 c0 -6 17 -10 37 -10 43 0 41 5 -4 13 -19 4 -33 2 -33 -3z"/> <path d="M2930 1680 c20 -13 70 -13 70 0 0 6 -19 10 -42 10 -32 0 -39 -3 -28 -10z"/> <path d="M1140 1641 c0 -17 4 -31 9 -31 15 0 23 18 11 25 -6 4 -8 10 -5 15 3 5 1 11 -5 15 -6 4 -10 -6 -10 -24z"/> <path d="M1406 1628 c-9 -12 -16 -37 -16 -55 0 -17 -4 -35 -10 -38 -6 -4 -7 1 -4 12 5 14 4 15 -4 4 -6 -8 -7 -22 -3 -30 5 -9 7 -21 5 -26 -3 -6 7 -38 20 -70 30 -72 34 -62 6 14 -23 60 -21 80 3 29 28 -61 31 -95 8 -107 -18 -10 -22 -5 -47 74 -27 84 -27 85 -60 85 -24 0 -34 -5 -39 -20 -5 -17 -15 -20 -66 -20 -32 0 -59 -4 -59 -10 0 -6 23 -7 56 -4 38 3 54 2 49 -5 -9 -15 78 -14 92 0 8 8 10 1 7 -27 -4 -28 1 -48 15 -71 l20 -32 69 30 c120 50 231 59 312 25 13 -5 18 6 28 52 13 62 16 170 5 159 -3 -4 -7 -19 -8 -34 -2 -16 -6 -37 -10 -47 -6 -13 -5 -17 2 -13 7 5 7 -8 -1 -40 -7 -26 -17 -48 -24 -51 -16 -5 -15 13 4 49 8 17 13 33 11 35 -3 3 -13 -13 -23 -35 -22 -48 -32 -52 -30 -12 1 16 4 27 7 25 6 -4 59 69 59 81 0 4 -5 3 -11 -1 -7 -4 -7 1 1 16 9 16 9 25 1 33 -8 8 -11 6 -12 -8 0 -26 -55 -70 -65 -54 -5 8 -3 9 6 4 9 -5 11 -4 6 3 -4 7 -3 12 2 12 6 0 13 8 17 18 3 9 -12 -1 -34 -23 -23 -21 -41 -40 -41 -42 0 -1 20 0 45 4 32 4 45 2 45 -6 0 -7 -5 -9 -12 -5 -7 4 -8 3 -4 -4 4 -7 1 -12 -8 -12 -20 0 -31 -20 -16 -30 19 -12 3 -29 -26 -25 -14 1 -53 -3 -87 -10 -60 -13 -75 -16 -124 -31 -25 -7 -32 13 -12 33 8 8 0 21 -30 48 -23 21 -41 42 -41 48 0 6 18 -7 40 -28 41 -40 57 -39 19 2 -26 27 -38 115 -19 138 7 8 10 15 7 15 -3 0 -13 -10 -21 -22z m-86 -145 c0 -7 -11 -13 -26 -13 -21 0 -24 3 -15 13 6 8 18 14 26 14 8 0 15 -6 15 -14z"/> <path d="M1741 1594 c0 -11 3 -14 6 -6 3 7 2 16 -1 19 -3 4 -6 -2 -5 -13z"/> <path d="M1122 1565 c0 -16 2 -22 5 -12 2 9 2 23 0 30 -3 6 -5 -1 -5 -18z"/> <path d="M1141 1573 c0 -11 3 -13 6 -5 3 8 33 12 99 12 84 0 93 -2 88 -17 -5 -15 -4 -16 5 -3 6 8 11 18 11 23 0 4 -47 7 -105 7 -94 0 -105 -2 -104 -17z"/> <path d="M1605 1581 c-3 -5 -1 -12 4 -15 5 -3 11 1 15 9 6 16 -9 21 -19 6z"/> <path d="M2930 1578 c0 -5 16 -8 35 -8 19 0 35 4 35 9 0 5 -16 9 -35 8 -19 -1 -35 -5 -35 -9z"/> <path d="M1533 1573 c9 -2 23 -2 30 0 6 3 -1 5 -18 5 -16 0 -22 -2 -12 -5z"/> <path d="M1243 1553 c9 -2 25 -2 35 0 9 3 1 5 -18 5 -19 0 -27 -2 -17 -5z"/> <path d="M1153 1543 c9 -2 25 -2 35 0 9 3 1 5 -18 5 -19 0 -27 -2 -17 -5z"/> <path d="M2930 1546 c0 -2 16 -6 35 -8 19 -2 35 0 35 4 0 4 -16 8 -35 8 -19 0 -35 -2 -35 -4z"/> <path d="M1133 1503 c9 -2 23 -2 30 0 6 3 -1 5 -18 5 -16 0 -22 -2 -12 -5z"/> <path d="M1140 1420 c0 -5 6 -10 14 -10 8 0 18 5 21 10 3 6 -3 10 -14 10 -12 0 -21 -4 -21 -10z"/> <path d="M1190 1415 c0 -11 13 -15 54 -15 30 0 58 -4 61 -10 4 -6 -17 -10 -54 -10 -34 0 -61 -4 -61 -10 0 -5 23 -10 52 -10 58 0 56 -16 -2 -23 -19 -2 -1 -4 41 -3 l77 1 -14 27 c-8 15 -14 36 -14 48 0 18 -6 20 -70 20 -56 0 -70 -3 -70 -15z m137 -61 c-3 -3 -12 -4 -19 -1 -8 3 -5 6 6 6 11 1 17 -2 13 -5z"/> <path d="M1122 1400 c0 -14 2 -19 5 -12 2 6 2 18 0 25 -3 6 -5 1 -5 -13z"/> <path d="M1575 1375 c-38 -7 -95 -23 -125 -36 -50 -21 -170 -94 -170 -104 0 -2 32 14 71 36 39 22 73 39 75 37 2 -3 -22 -23 -54 -47 -44 -32 -64 -41 -86 -38 -27 4 -27 3 -11 -10 18 -12 17 -13 -6 -13 -14 0 -34 -6 -44 -14 -19 -13 -18 -14 5 -9 16 3 36 -4 58 -20 37 -28 92 -104 91 -127 0 -10 -2 -11 -6 -2 -8 21 -25 13 -18 -8 4 -12 1 -27 -5 -35 -15 -18 -42 -8 -110 40 -29 20 -53 35 -54 33 -17 -20 -135 -282 -131 -288 3 -5 -4 -28 -16 -52 -13 -26 -22 -62 -23 -97 -2 -98 16 -375 26 -391 7 -11 7 -9 3 7 -3 12 3 37 14 60 39 76 82 194 74 206 -3 5 -25 -40 -49 -99 -36 -91 -44 -103 -44 -74 0 21 15 67 35 109 20 41 33 76 31 79 -3 2 -10 -7 -17 -21 -18 -39 -44 -28 -45 19 0 21 -4 47 -9 57 -15 34 2 103 39 160 20 32 36 61 36 65 0 4 16 31 35 61 38 57 41 71 24 88 -8 8 -6 18 7 37 24 32 30 32 85 -2 61 -39 104 -26 126 37 12 32 10 37 -22 83 -19 26 -33 48 -30 48 3 0 23 -11 45 -25 22 -14 42 -25 45 -25 3 0 30 -16 59 -36 30 -19 62 -37 72 -39 11 -2 19 -4 19 -5 0 -10 112 -23 118 -13 3 5 -9 10 -28 11 -58 4 -117 27 -215 83 -52 30 -107 60 -122 68 -27 14 -37 31 -19 31 5 0 47 -16 92 -35 46 -19 93 -35 104 -35 26 1 -97 65 -145 75 l-35 8 60 13 c33 7 96 24 139 38 43 14 99 26 123 26 24 0 42 4 39 8 -8 13 -133 15 -141 2 -3 -5 -16 -10 -28 -10 -12 0 -31 -7 -41 -15 -11 -8 -30 -15 -43 -15 -41 0 -4 39 52 56 100 29 166 35 225 18 30 -8 69 -19 87 -23 17 -5 42 -19 55 -31 l23 -23 -36 21 c-87 52 -23 -18 89 -96 39 -28 40 -24 6 38 -31 56 -83 102 -157 135 -69 32 -118 37 -202 20z m63 -12 c-10 -2 -28 -2 -40 0 -13 2 -5 4 17 4 22 1 32 -1 23 -4z m127 -13 c22 -11 31 -17 20 -14 -11 4 -42 12 -70 19 -40 11 -44 13 -20 14 17 0 48 -8 70 -19z m-210 0 c-11 -5 -27 -9 -35 -9 -9 0 -8 4 5 9 11 5 27 9 35 9 9 0 8 -4 -5 -9z m-440 -500 c-57 -97 -73 -100 -19 -3 42 77 55 95 61 89 3 -2 -17 -41 -42 -86z"/> <path d="M1140 1355 c0 -22 4 -25 33 -24 30 0 31 1 8 10 -15 6 -21 15 -17 24 3 9 0 15 -9 15 -9 0 -15 -10 -15 -25z"/> <path d="M920 1290 c-13 -8 -12 -10 3 -10 9 0 17 5 17 10 0 12 -1 12 -20 0z"/> <path d="M868 1283 c6 -2 18 -2 25 0 6 3 1 5 -13 5 -14 0 -19 -2 -12 -5z"/> <path d="M723 1273 c9 -2 25 -2 35 0 9 3 1 5 -18 5 -19 0 -27 -2 -17 -5z"/> <path d="M487 1263 c18 -2 50 -2 70 0 21 2 7 4 -32 4 -38 0 -55 -2 -38 -4z"/> <path d="M1571 1259 c-13 -5 -39 -23 -58 -40 -20 -17 -38 -27 -42 -24 -3 4 5 15 18 26 27 22 16 24 -28 6 l-31 -13 23 -22 c12 -11 40 -28 62 -37 40 -16 40 -16 16 3 l-24 19 21 23 c12 13 25 19 33 15 8 -5 10 -4 5 3 -4 7 4 14 21 18 68 15 103 25 103 29 0 9 -95 4 -119 -6z"/> <path d="M2196 1261 c12 -13 105 -21 444 -41 96 -5 218 -12 270 -16 52 -4 93 -4 90 -1 -3 3 -183 18 -399 32 -216 14 -398 28 -404 31 -9 5 -9 4 -1 -5z"/> <path d="M287 1253 c18 -2 50 -2 70 0 21 2 7 4 -32 4 -38 0 -55 -2 -38 -4z"/> <path d="M143 1243 c15 -2 39 -2 55 0 15 2 2 4 -28 4 -30 0 -43 -2 -27 -4z"/> <path d="M2688 1243 c12 -2 30 -2 40 0 9 3 -1 5 -23 4 -22 0 -30 -2 -17 -4z"/> <path d="M1645 1190 c11 -5 29 -9 40 -9 20 0 20 0 0 9 -11 5 -29 9 -40 9 -20 0 -20 0 0 -9z"/> <path d="M1600 1140 c-9 -6 -10 -10 -3 -10 6 0 15 5 18 10 8 12 4 12 -15 0z"/> <path d="M1148 1123 c-10 -2 -18 -9 -18 -14 0 -13 13 -11 36 6 19 14 14 17 -18 8z"/> <path d="M1958 1093 c6 -2 9 -10 6 -15 -4 -6 -2 -8 4 -4 12 7 62 -13 62 -26 0 -4 7 -8 16 -8 8 0 12 5 9 10 -8 14 -81 50 -97 49 -10 0 -10 -2 0 -6z"/> <path d="M1108 1073 c-23 -27 -30 -43 -19 -43 5 0 19 14 31 30 23 32 13 42 -12 13z"/> <path d="M1770 1044 c-14 -7 -33 -14 -42 -14 -10 0 -18 -4 -18 -10 0 -5 6 -10 13 -10 16 1 97 37 97 45 0 9 -24 4 -50 -11z"/> <path d="M1038 1007 c-10 -23 -18 -48 -18 -56 0 -11 -3 -11 -15 -1 -8 7 -15 17 -15 23 0 6 3 7 7 4 4 -4 13 7 20 24 18 43 9 49 -15 10 -10 -17 -22 -28 -27 -23 -4 4 -3 -3 3 -14 6 -12 10 -23 8 -25 -2 -2 -6 -16 -10 -31 -5 -22 -3 -26 9 -22 12 5 15 -2 16 -32 2 -33 3 -35 6 -9 4 33 20 71 40 95 15 19 29 100 17 100 -5 0 -17 -19 -26 -43z m-28 -97 c0 -13 -1 -13 -10 0 -5 8 -10 22 -10 30 0 13 1 13 10 0 5 -8 10 -22 10 -30z"/> <path d="M1093 995 c-11 -22 -26 -63 -33 -92 -8 -29 -17 -50 -22 -47 -4 3 -8 -10 -9 -28 0 -18 -4 -42 -9 -53 -7 -16 -9 -14 -9 14 -1 42 -7 38 -14 -9 -4 -19 -11 -55 -17 -80 -11 -42 -7 -141 7 -177 4 -10 2 -14 -4 -10 -7 4 -10 0 -7 -10 2 -10 8 -63 13 -117 6 -54 15 -104 22 -110 9 -8 10 1 5 39 -3 28 -9 115 -12 195 -7 161 -15 121 86 403 35 98 37 148 3 82z"/> <path d="M2057 1003 l5 -28 -21 25 c-11 14 -21 20 -21 14 0 -17 46 -145 74 -204 14 -30 26 -68 26 -85 1 -27 2 -28 11 -11 6 10 9 37 6 60 -3 22 -2 61 2 85 l6 44 45 -69 c41 -62 78 -137 94 -186 6 -20 26 -24 26 -5 -1 26 -48 125 -95 197 -26 41 -56 92 -65 113 l-17 38 -7 -32 c-3 -17 -6 -59 -6 -93 -1 -49 -3 -57 -12 -42 -10 17 -7 81 7 156 4 21 4 22 -3 5 -8 -18 -10 -17 -26 13 -20 39 -35 42 -29 5z m33 -64 c0 -10 -4 -19 -9 -19 -12 0 -23 29 -15 41 8 14 24 0 24 -22z"/> <path d="M888 837 c-75 -130 -128 -244 -108 -232 6 4 22 27 35 53 14 26 34 63 46 82 11 19 34 61 51 93 19 35 34 53 38 46 4 -6 11 10 14 36 4 26 6 49 4 51 -3 2 -39 -56 -80 -129z"/> <path d="M0 932 c0 -15 5 -18 25 -14 29 5 29 5 -2 21 -20 10 -23 9 -23 -7z"/> <path d="M618 943 c12 -2 30 -2 40 0 9 3 -1 5 -23 4 -22 0 -30 -2 -17 -4z"/> <path d="M465 930 l-50 -7 45 -1 c25 0 65 3 90 7 l45 8 -40 0 c-22 0 -62 -3 -90 -7z"/> <path d="M378 913 c6 -2 18 -2 25 0 6 3 1 5 -13 5 -14 0 -19 -2 -12 -5z"/> <path d="M2557 910 c13 -5 60 -16 105 -24 46 -8 99 -18 118 -22 19 -4 32 -4 29 -1 -6 7 -243 57 -263 56 -6 0 -1 -4 11 -9z"/> <path d="M2221 862 c19 -35 25 -40 30 -25 3 10 1 20 -5 22 -6 2 -19 13 -29 25 -14 16 -13 10 4 -22z"/> <path d="M917 780 c-18 -56 -21 -78 -9 -66 4 4 7 11 7 14 1 4 7 24 14 45 7 20 11 42 9 49 -2 6 -12 -13 -21 -42z"/> <path d="M721 740 c-37 -24 -49 -39 -72 -97 l-27 -68 -311 0 -311 0 0 -22 c0 -17 8 -24 35 -29 40 -7 41 -11 20 -42 -15 -20 -15 -21 2 -15 10 4 1 -8 -19 -26 -37 -32 -50 -72 -28 -86 14 -8 44 13 62 45 22 39 11 45 -19 9 -14 -16 -30 -29 -36 -29 -6 0 7 18 28 41 l40 40 200 -6 c110 -3 228 -5 261 -5 l62 0 25 -47 c13 -27 32 -49 40 -51 14 -3 16 8 12 75 -2 43 -6 89 -10 103 -3 14 -2 37 4 50 8 21 10 17 11 -30 1 -103 18 -88 22 21 2 57 8 112 12 122 5 10 4 17 -2 17 -6 0 -25 -37 -42 -82 -37 -93 -41 -152 -16 -212 24 -57 10 -57 -16 0 -29 63 -30 141 -2 176 11 14 26 45 34 68 10 30 25 49 51 66 37 23 58 45 42 43 -4 0 -28 -13 -52 -29z m-241 -199 c102 -1 116 -3 118 -18 1 -10 3 -27 4 -38 3 -17 -3 -20 -47 -19 -27 0 -146 1 -263 2 l-212 2 6 24 c3 13 1 27 -5 30 -31 20 2 25 137 22 81 -2 199 -4 262 -5z"/> <path d="M105 740 c-13 -14 -31 -20 -62 -20 -49 0 -51 -14 -3 -23 18 -4 30 -13 30 -22 0 -9 -4 -13 -10 -10 -5 3 -10 1 -10 -4 0 -6 -11 -11 -25 -11 -14 0 -25 -4 -25 -10 0 -13 80 -13 100 0 8 5 10 10 5 10 -16 0 -6 72 13 93 8 9 13 17 10 17 -3 0 -13 -9 -23 -20z"/> <path d="M2300 736 c14 -15 44 -42 68 -58 24 -17 52 -44 63 -61 10 -18 19 -27 19 -21 0 6 -8 22 -19 35 -10 13 -21 33 -25 44 -3 11 -25 28 -48 39 -24 10 -52 25 -63 34 -12 10 -10 6 5 -12z"/> <path d="M2960 736 c28 -17 50 -21 35 -7 -6 5 -21 12 -35 15 l-25 7 25 -15z"/> <path d="M2161 729 c-1 -8 6 -24 15 -35 15 -19 15 -19 6 1 -5 11 -12 27 -15 35 -5 13 -6 13 -6 -1z"/> <path d="M1964 532 c47 -93 88 -185 91 -205 10 -54 -1 -77 -36 -77 -48 0 -64 14 -114 100 -47 81 -75 114 -52 63 76 -167 122 -237 192 -292 51 -40 65 -58 71 -86 3 -19 10 -35 15 -35 16 0 9 44 -16 105 -24 58 -47 155 -26 110 20 -42 59 -151 66 -182 3 -18 11 -33 17 -33 15 0 3 50 -33 145 -36 94 -43 103 -64 85 -17 -14 -20 -65 -5 -75 6 -3 10 -10 10 -16 0 -19 -22 -7 -65 36 -47 46 -59 73 -27 60 34 -15 67 -5 94 27 24 29 27 42 28 99 0 37 -6 78 -13 93 l-14 26 -13 -25 c-8 -14 -18 -24 -23 -22 -11 3 -33 44 -72 127 -38 83 -58 117 -78 129 -10 7 17 -56 67 -157z m126 -172 c0 -47 -4 -80 -10 -80 -6 0 -10 33 -10 80 0 47 4 80 10 80 6 0 10 -33 10 -80z"/> <path d="M2314 683 c2 -10 8 -29 11 -42 5 -16 4 -21 -4 -17 -6 4 -11 2 -11 -3 0 -6 4 -11 9 -11 5 0 12 -7 15 -16 3 -9 2 -12 -5 -8 -16 9 17 -50 36 -66 11 -9 15 -29 14 -72 -2 -58 -4 -61 -42 -89 -37 -27 -87 -39 -87 -21 0 4 -8 8 -17 8 -10 0 -33 4 -52 8 -50 12 -30 -9 28 -29 26 -8 54 -14 62 -11 8 2 26 7 41 10 14 3 40 18 57 32 30 25 31 28 31 114 0 49 -5 101 -10 116 -13 34 -6 43 12 12 8 -14 13 -54 12 -107 l-1 -83 20 37 c12 25 17 48 13 67 -3 18 -2 27 4 23 6 -3 10 -23 10 -43 0 -52 -59 -144 -105 -166 -58 -28 -124 -31 -169 -7 -22 11 -42 19 -44 16 -9 -8 43 -44 63 -45 12 0 26 -5 33 -12 8 -8 30 -4 87 17 63 23 82 35 106 68 16 23 32 50 35 61 5 21 11 21 269 21 146 0 265 3 265 8 0 4 -119 7 -265 7 -244 0 -265 1 -257 16 5 9 7 25 5 35 -5 17 4 19 148 19 381 1 369 1 369 16 0 12 -44 14 -280 14 -156 0 -279 4 -277 9 3 12 -40 68 -62 80 -17 9 -18 7 -10 -32 11 -58 11 -89 -1 -82 -5 3 -10 23 -10 43 0 20 -9 56 -20 80 -19 42 -36 58 -26 25z"/> <path d="M2831 676 c58 -28 100 -37 140 -29 26 5 18 9 -63 29 -115 30 -136 30 -77 0z"/> <path d="M1071 664 c0 -11 3 -14 6 -6 3 7 2 16 -1 19 -3 4 -6 -2 -5 -13z"/> <path d="M2538 673 c-64 -10 -12 -55 83 -73 42 -8 68 -6 136 10 102 24 126 25 187 4 26 -9 50 -14 53 -11 3 3 -21 13 -52 23 -57 16 -138 16 -179 -1 -13 -6 -17 -5 -12 3 4 8 -3 8 -26 1 -40 -12 -171 -1 -193 15 -13 9 20 12 150 11 91 0 151 3 133 7 -40 9 -242 16 -280 11z m70 -10 c-10 -2 -26 -2 -35 0 -10 3 -2 5 17 5 19 0 27 -2 18 -5z m19 -49 c-3 -3 -12 -4 -19 -1 -8 3 -5 6 6 6 11 1 17 -2 13 -5z m110 0 c-3 -3 -12 -4 -19 -1 -8 3 -5 6 6 6 11 1 17 -2 13 -5z"/> <path d="M1864 658 c1 -7 14 -39 29 -72 15 -32 27 -61 27 -64 0 -6 63 -142 81 -175 9 -16 7 -17 -9 -8 -11 6 -33 26 -49 45 -17 19 -44 42 -59 52 -25 17 -23 12 14 -34 45 -53 119 -122 133 -122 19 0 16 21 -13 81 -17 35 -55 118 -84 184 -29 66 -57 121 -63 123 -5 2 -8 -3 -7 -10z"/> <path d="M2175 661 c-3 -5 -1 -12 5 -16 5 -3 10 1 10 9 0 18 -6 21 -15 7z"/> <path d="M881 644 c0 -11 3 -14 6 -6 3 7 2 16 -1 19 -3 4 -6 -2 -5 -13z"/> <path d="M933 600 c0 -25 2 -35 4 -22 2 12 2 32 0 45 -2 12 -4 2 -4 -23z"/> <path d="M2960 636 c0 -2 9 -6 20 -9 11 -3 20 -1 20 4 0 5 -9 9 -20 9 -11 0 -20 -2 -20 -4z"/> <path d="M1253 557 c-11 -18 -38 -66 -59 -107 -21 -41 -43 -82 -50 -90 -6 -8 -15 -26 -19 -40 -4 -14 -10 -27 -14 -30 -3 -3 -25 -43 -49 -90 -24 -47 -41 -77 -38 -67 3 10 6 28 6 38 0 13 4 18 13 13 6 -4 3 2 -7 14 -11 12 -25 22 -32 22 -19 0 -64 -134 -64 -192 0 -56 16 -26 34 61 10 49 24 98 32 108 14 17 15 17 10 -2 -3 -11 -15 -61 -25 -110 -20 -88 -20 -90 -1 -65 23 29 293 560 288 565 -2 2 -13 -11 -25 -28z"/> <path d="M1267 518 c-45 -103 -214 -435 -243 -478 -16 -22 -20 -36 -13 -39 7 -2 17 5 23 15 40 67 198 372 218 424 24 60 55 150 51 150 -2 0 -18 -33 -36 -72z"/> <path d="M2182 555 c0 -16 2 -22 5 -12 2 9 2 23 0 30 -3 6 -5 -1 -5 -18z"/> <path d="M2081 504 c0 -11 3 -14 6 -6 3 7 2 16 -1 19 -3 4 -6 -2 -5 -13z"/> <path d="M895 480 c-16 -11 -25 -20 -18 -20 6 0 15 5 18 10 4 6 10 8 15 5 4 -3 13 2 20 10 17 21 1 19 -35 -5z"/> <path d="M19 475 c-1 -3 -2 -8 -3 -12 -1 -5 -5 -14 -10 -21 -14 -22 0 -23 19 -2 11 12 13 20 6 20 -7 0 -9 5 -6 10 3 6 4 10 1 10 -3 0 -7 -2 -7 -5z"/> <path d="M825 390 c-16 -7 -14 -9 15 -9 19 0 42 4 50 9 11 7 8 10 -15 9 -16 0 -39 -4 -50 -9z"/> <path d="M863 356 c-65 -18 -65 -29 2 -22 48 5 56 4 40 -6 -11 -6 -41 -12 -67 -12 -36 -1 -44 -4 -36 -13 13 -16 52 -15 97 1 41 15 52 35 22 43 -11 3 -18 9 -15 14 3 5 4 8 2 8 -2 -1 -22 -7 -45 -13z"/> <path d="M33 304 c-18 -14 -33 -34 -33 -45 0 -17 4 -15 27 10 33 34 100 53 85 23 -5 -9 -6 -26 -1 -37 14 -35 10 -41 -52 -110 -33 -37 -58 -70 -54 -73 7 -7 125 117 126 133 6 76 5 102 -3 113 -17 20 -61 14 -95 -14z"/> <path d="M59 263 c-13 -16 -12 -17 4 -4 16 13 21 21 13 21 -2 0 -10 -8 -17 -17z"/> <path d="M70 245 c-12 -13 -26 -22 -30 -20 -4 3 -16 -5 -26 -18 -16 -18 -16 -19 -1 -8 22 17 22 3 0 -21 -9 -10 -13 -18 -9 -18 10 0 96 91 96 101 0 14 -4 11 -30 -16z"/> <path d="M1900 258 c0 -7 13 -38 28 -68 29 -60 98 -120 135 -120 19 1 18 3 -8 17 -50 26 -102 83 -125 134 -20 49 -30 61 -30 37z"/> <path d="M2632 148 c-30 -30 7 -99 45 -83 10 5 65 9 123 9 l105 1 0 35 0 35 -76 1 c-41 1 -100 4 -130 8 -38 5 -58 3 -67 -6z m56 -34 c4 -26 -26 -40 -45 -21 -8 7 -11 21 -7 31 9 24 48 17 52 -10z m82 6 c23 15 30 12 30 -12 0 -19 -2 -20 -10 -8 -6 9 -10 10 -10 3 0 -6 -9 -11 -20 -10 -11 1 -20 5 -20 10 0 5 -7 4 -15 -3 -13 -10 -15 -9 -15 8 0 15 5 20 15 16 9 -4 15 0 16 7 0 9 3 8 7 -3 5 -13 11 -15 22 -8z m110 -16 c0 -6 -7 -11 -15 -11 -16 0 -18 7 -9 32 5 13 8 14 15 3 5 -7 9 -18 9 -24z m17 -1 c-3 -10 -5 -4 -5 12 0 17 2 24 5 18 2 -7 2 -21 0 -30z m-67 2 c0 -8 -4 -15 -10 -15 -5 0 -10 7 -10 15 0 8 5 15 10 15 6 0 10 -7 10 -15z"/> <path d="M2650 115 c0 -8 7 -15 15 -15 8 0 15 7 15 15 0 8 -7 15 -15 15 -8 0 -15 -7 -15 -15z"/> <path d="M1877 79 c7 -7 15 -10 18 -7 3 3 -2 9 -12 12 -14 6 -15 5 -6 -5z"/> </g> </svg> 